<svg width="864" height="630" viewBox="0 0 864 630" fill="none" xmlns="http://www.w3.org/2000/svg">
<path d="M343.5 45.4932C208.301 -29.1226 237.522 -36.2613 274 -72.5068L48.6775 -116.021C-41.3625 -180.7 1.11793 -173.201 113.783 -216.79C226.449 -260.378 1389.14 -314.953 1151.02 -124.521C1102.85 -85.9989 1064.57 -168.343 1018 -137.507C747.5 -346.913 867.623 81.5812 1019.5 153.5C1219.44 248.176 832.667 287.729 889 425.993C934.066 536.604 1168.1 411.727 1250.6 388.292L1294 546.242C1241.98 573.269 1261.61 676.609 980.5 603.493C629.113 512.098 851.543 339.756 755.5 193.993C641.714 21.3017 512.498 138.763 343.5 45.4932Z" fill="url(#paint0_linear_31_1025)" fill-opacity="0.28"/>
<defs>
<linearGradient id="paint0_linear_31_1025" x1="647" y1="-259" x2="647" y2="629.197" gradientUnits="userSpaceOnUse">
<stop/>
<stop offset="1" stop-opacity="0"/>
</linearGradient>
</defs>
</svg>
